<svg width="16" height="16" viewBox="0 0 16 16" fill="none" xmlns="http://www.w3.org/2000/svg">
<g clip-path="url(#clip0_23833_5186)">
<path d="M7.99908 0.766663C11.9941 0.766663 15.2334 4.00507 15.2335 8.00006C15.2335 11.1468 13.2236 13.8219 10.4171 14.8174C10.4179 14.6723 10.4203 14.462 10.4219 14.2003C10.4243 13.8303 10.4268 13.362 10.4268 12.8438C10.4268 12.4382 10.3567 12.0828 10.2393 11.7833C10.9019 11.6435 11.5747 11.3977 12.1339 10.9297C12.9414 10.2537 13.4327 9.19053 13.4327 7.59576C13.4327 6.73505 13.1593 6.00362 12.6973 5.41022C12.8077 4.9824 12.8951 4.22285 12.5255 3.2901L12.4385 3.07037L12.2139 2.99811L12.0928 3.37311C12.2015 3.03442 12.2123 3.00145 12.213 2.99811L12.212 2.99713H12.209C12.2078 2.99673 12.2065 2.99559 12.2051 2.99518C12.2023 2.99433 12.1995 2.99314 12.1964 2.99225C12.19 2.99043 12.1826 2.9893 12.1749 2.98737C12.1591 2.98343 12.1404 2.97851 12.1192 2.97467C12.0767 2.96697 12.0231 2.96102 11.959 2.95807C11.8307 2.95218 11.6614 2.96122 11.4493 3.00592C11.0607 3.08783 10.5324 3.288 9.84772 3.72662C9.24978 3.58122 8.62314 3.50908 8.00299 3.50592H7.99811C7.37724 3.50906 6.74927 3.58102 6.15143 3.72662C5.46667 3.28833 4.93859 3.08777 4.54987 3.00592C4.33734 2.96118 4.16755 2.95215 4.03912 2.95807C3.97535 2.96102 3.92231 2.96702 3.87994 2.97467C3.85873 2.97851 3.84002 2.98343 3.82428 2.98737C3.81652 2.98931 3.80922 2.99042 3.8028 2.99225C3.79955 2.99317 3.79593 2.9943 3.79303 2.99518C3.79171 2.99558 3.79037 2.99577 3.78912 2.99615L3.78717 2.99713H3.78619C3.78571 2.99729 3.78512 2.99793 3.93756 3.47369L3.78522 2.99811L3.55963 3.07037L3.47272 3.2901C3.10409 4.22228 3.19107 4.98185 3.30182 5.41022C2.84086 6.00283 2.56549 6.7344 2.56549 7.59576C2.56549 9.18692 3.0564 10.2491 3.86139 10.9268C4.41994 11.397 5.09187 11.6463 5.75397 11.7881C5.71842 11.8796 5.68899 11.9766 5.66315 12.0782C5.49963 12.1283 5.30557 12.1668 5.11041 12.1495C4.84627 12.1259 4.53958 12.0041 4.27838 11.5567C4.27704 11.5544 4.27517 11.5518 4.2735 11.5489C4.26813 11.5397 4.26083 11.5279 4.25201 11.5137C4.23425 11.4851 4.20988 11.4463 4.1778 11.4014C4.11397 11.3122 4.01856 11.1931 3.89264 11.0714C3.6442 10.8313 3.24344 10.5522 2.69733 10.5137L2.66803 10.5118H2.64948C2.64022 10.5119 2.6278 10.5122 2.61334 10.5128C2.58489 10.5138 2.54511 10.5166 2.50006 10.5215C2.4294 10.5294 2.26975 10.5505 2.12506 10.6329C2.04726 10.6772 1.92828 10.7651 1.85944 10.9229C1.78385 11.0962 1.80534 11.2681 1.86041 11.3995C1.94979 11.6124 2.14751 11.7719 2.32721 11.8946L2.36041 11.918L2.38678 11.9297C2.39083 11.9321 2.3989 11.9379 2.41119 11.9464C2.4401 11.9661 2.49078 12.0033 2.5528 12.0655C2.67474 12.1877 2.8491 12.4111 2.99908 12.7891C2.99992 12.7915 3.00109 12.7943 3.00201 12.7969C3.00858 12.8155 3.01759 12.8397 3.02936 12.8682C3.05297 12.9254 3.08809 13.0017 3.13776 13.0889C3.23685 13.2628 3.39772 13.4864 3.64459 13.6915C4.0683 14.0433 4.69407 14.2957 5.57623 14.2276C5.57843 14.4762 5.58003 14.6768 5.58112 14.8174C2.77524 13.8221 0.766663 11.1454 0.766663 8.00006C0.766766 4.00507 4.00556 0.766769 7.99908 0.766663ZM2.39655 11.9346H2.39557L2.39459 11.9337L2.39264 11.9327C2.39163 11.9322 2.39054 11.9321 2.38971 11.9317L2.38873 11.9307L2.39655 11.9346Z" fill="#09090B" stroke="#18181B"/>
</g>
<defs>
<clipPath id="clip0_23833_5186">
<rect width="16" height="16" fill="white"/>
</clipPath>
</defs>
</svg>
